<svg xmlns="http://www.w3.org/2000/svg" width="830" height="121" viewBox="0 0 830 121" role="img" aria-label="Startup-Pitch-Evaluation - Multimodal pitch scoring — analyses video, audio, and transcript to rate investor pitches across 10 rubric metrics. FastAPI, PyTorch, Whisper, MediaPipe.">
  <rect x="8" y="1" width="814" height="119" rx="10" fill="#121212" stroke="#3f3f46" stroke-width="1"/>
  <g transform="translate(28,22) scale(1)"><circle cx="12" cy="12" r="9" fill="none" stroke="#dc2626" stroke-width="1.8"/><path d="M12 7.4l3.3 2.4-1.26 3.9H9.96L8.7 9.8z" fill="#dc2626"/><path d="M12 3v2.3M4.3 9.6l2.2.7M19.7 9.6l-2.2.7M7.6 19.2l1.35-1.85M16.4 19.2l-1.35-1.85" stroke="#dc2626" stroke-width="1.5" stroke-linecap="round" fill="none"/></g>
  <text x="64" y="36" font-family="system-ui,-apple-system,Segoe UI,Roboto,Helvetica,Arial,sans-serif" font-size="16" font-weight="700" fill="#ffffff">Startup-Pitch-Evaluation</text>
  <text x="64" y="54" font-family="system-ui,-apple-system,Segoe UI,Roboto,Helvetica,Arial,sans-serif" font-size="12.5" fill="#9fb3cc">Multimodal pitch scoring — analyses video, audio, and transcript to rate investor pitches across 10 rubric</text>
  <text x="64" y="72" font-family="system-ui,-apple-system,Segoe UI,Roboto,Helvetica,Arial,sans-serif" font-size="12.5" fill="#9fb3cc">metrics. FastAPI, PyTorch, Whisper, MediaPipe.</text>
  <rect x="64" y="84" width="61" height="19" rx="9.5" fill="#1b1b1b" stroke="#3f3f46" stroke-width="1"/>
  <text x="94.5" y="97" font-family="system-ui,-apple-system,Segoe UI,Roboto,Helvetica,Arial,sans-serif" font-size="10.5" fill="#9ca3af" text-anchor="middle">FastAPI</text>
  <rect x="132" y="84" width="61" height="19" rx="9.5" fill="#1b1b1b" stroke="#3f3f46" stroke-width="1"/>
  <text x="162.5" y="97" font-family="system-ui,-apple-system,Segoe UI,Roboto,Helvetica,Arial,sans-serif" font-size="10.5" fill="#9ca3af" text-anchor="middle">PyTorch</text>
  <rect x="200" y="84" width="61" height="19" rx="9.5" fill="#1b1b1b" stroke="#3f3f46" stroke-width="1"/>
  <text x="230.5" y="97" font-family="system-ui,-apple-system,Segoe UI,Roboto,Helvetica,Arial,sans-serif" font-size="10.5" fill="#9ca3af" text-anchor="middle">Whisper</text>
</svg>
